<svg height="576" viewBox="0 0 864 432" width="1152" xmlns="http://www.w3.org/2000/svg" xmlns:xlink="http://www.w3.org/1999/xlink"><defs><style>*{stroke-linecap:butt;stroke-linejoin:round}</style></defs><g id="figure_1"><path d="M0 432h864V0H0z" fill="#fff" id="patch_1"/><g id="axes_1"><path d="M108 378h669.6V51.84H108z" fill="#fff" id="patch_2"/><g id="matplotlib.axis_1"><g id="xtick_1"><g id="line2d_1"><defs><path d="M0 0v3.5" id="m0e60ab3a16" stroke="#000" stroke-width=".8"/></defs><use x="108" xlink:href="#m0e60ab3a16" y="378" stroke="#000" stroke-width=".8"/></g><g id="text_1"><defs><path d="M31.781 66.406q-7.61 0-11.453-7.5Q16.5 51.422 16.5 36.375q0-14.984 3.828-22.484 3.844-7.5 11.453-7.5 7.672 0 11.5 7.5 3.844 7.5 3.844 22.484 0 15.047-3.844 22.531-3.828 7.5-11.5 7.5m0 7.813q12.266 0 18.735-9.703 6.468-9.688 6.468-28.141 0-18.406-6.468-28.11-6.47-9.687-18.735-9.687-12.25 0-18.718 9.688-6.47 9.703-6.47 28.109 0 18.453 6.47 28.14Q19.53 74.22 31.78 74.22" id="DejaVuSans-30"/><path d="M10.688 12.406H21V0H10.687z" id="DejaVuSans-2e"/></defs><g transform="matrix(.1 0 0 -.1 96.867 392.598)"><use xlink:href="#DejaVuSans-30"/><use x="63.623" xlink:href="#DejaVuSans-2e"/><use x="95.41" xlink:href="#DejaVuSans-30"/><use x="159.033" xlink:href="#DejaVuSans-30"/></g></g></g><g id="xtick_2"><use x="191.7" xlink:href="#m0e60ab3a16" y="378" stroke="#000" stroke-width=".8" id="line2d_2"/><g id="text_2"><defs><path d="M19.188 8.297h34.421V0H7.33v8.297q5.609 5.812 15.296 15.594 9.703 9.797 12.188 12.64 4.734 5.313 6.609 9 1.89 3.688 1.89 7.25 0 5.813-4.078 9.469-4.078 3.672-10.625 3.672-4.64 0-9.797-1.61-5.14-1.609-11-4.89v9.969Q13.767 71.78 18.938 73q5.188 1.219 9.485 1.219 11.328 0 18.062-5.672 6.735-5.656 6.735-15.125 0-4.5-1.688-8.531-1.672-4.016-6.125-9.485-1.218-1.422-7.765-8.187-6.532-6.766-18.453-18.922" id="DejaVuSans-32"/><path d="M10.797 72.906h38.719v-8.312H19.828v-17.86q2.14.735 4.281 1.094 2.157.36 4.313.36 12.203 0 19.328-6.688 7.14-6.688 7.14-18.11 0-11.765-7.328-18.296-7.328-6.516-20.656-6.516-4.593 0-9.36.781-4.75.782-9.827 2.344v9.922q4.39-2.39 9.078-3.563 4.687-1.171 9.906-1.171 8.453 0 13.375 4.437 4.938 4.438 4.938 12.063 0 7.609-4.938 12.047-4.922 4.453-13.375 4.453-3.953 0-7.89-.875-3.922-.875-8.016-2.735z" id="DejaVuSans-35"/></defs><g transform="matrix(.1 0 0 -.1 180.567 392.598)"><use xlink:href="#DejaVuSans-30"/><use x="63.623" xlink:href="#DejaVuSans-2e"/><use x="95.41" xlink:href="#DejaVuSans-32"/><use x="159.033" xlink:href="#DejaVuSans-35"/></g></g></g><g id="xtick_3"><use x="275.4" xlink:href="#m0e60ab3a16" y="378" stroke="#000" stroke-width=".8" id="line2d_3"/><g transform="matrix(.1 0 0 -.1 264.267 392.598)" id="text_3"><use xlink:href="#DejaVuSans-30"/><use x="63.623" xlink:href="#DejaVuSans-2e"/><use x="95.41" xlink:href="#DejaVuSans-35"/><use x="159.033" xlink:href="#DejaVuSans-30"/></g></g><g id="xtick_4"><use x="359.1" xlink:href="#m0e60ab3a16" y="378" stroke="#000" stroke-width=".8" id="line2d_4"/><g id="text_4"><defs><path d="M8.203 72.906h46.875v-4.203L28.61 0H18.312L43.22 64.594H8.203z" id="DejaVuSans-37"/></defs><g transform="matrix(.1 0 0 -.1 347.967 392.598)"><use xlink:href="#DejaVuSans-30"/><use x="63.623" xlink:href="#DejaVuSans-2e"/><use x="95.41" xlink:href="#DejaVuSans-37"/><use x="159.033" xlink:href="#DejaVuSans-35"/></g></g></g><g id="xtick_5"><use x="442.8" xlink:href="#m0e60ab3a16" y="378" stroke="#000" stroke-width=".8" id="line2d_5"/><g id="text_5"><defs><path d="M12.406 8.297h16.11v55.625l-17.532-3.516v8.985l17.438 3.515h9.86V8.296H54.39V0H12.406z" id="DejaVuSans-31"/></defs><g transform="matrix(.1 0 0 -.1 431.667 392.598)"><use xlink:href="#DejaVuSans-31"/><use x="63.623" xlink:href="#DejaVuSans-2e"/><use x="95.41" xlink:href="#DejaVuSans-30"/><use x="159.033" xlink:href="#DejaVuSans-30"/></g></g></g><g id="xtick_6"><use x="526.5" xlink:href="#m0e60ab3a16" y="378" stroke="#000" stroke-width=".8" id="line2d_6"/><g transform="matrix(.1 0 0 -.1 515.367 392.598)" id="text_6"><use xlink:href="#DejaVuSans-31"/><use x="63.623" xlink:href="#DejaVuSans-2e"/><use x="95.41" xlink:href="#DejaVuSans-32"/><use x="159.033" xlink:href="#DejaVuSans-35"/></g></g><g id="xtick_7"><use x="610.2" xlink:href="#m0e60ab3a16" y="378" stroke="#000" stroke-width=".8" id="line2d_7"/><g transform="matrix(.1 0 0 -.1 599.067 392.598)" id="text_7"><use xlink:href="#DejaVuSans-31"/><use x="63.623" xlink:href="#DejaVuSans-2e"/><use x="95.41" xlink:href="#DejaVuSans-35"/><use x="159.033" xlink:href="#DejaVuSans-30"/></g></g><g id="xtick_8"><use x="693.9" xlink:href="#m0e60ab3a16" y="378" stroke="#000" stroke-width=".8" id="line2d_8"/><g transform="matrix(.1 0 0 -.1 682.767 392.598)" id="text_8"><use xlink:href="#DejaVuSans-31"/><use x="63.623" xlink:href="#DejaVuSans-2e"/><use x="95.41" xlink:href="#DejaVuSans-37"/><use x="159.033" xlink:href="#DejaVuSans-35"/></g></g><g id="xtick_9"><use x="777.6" xlink:href="#m0e60ab3a16" y="378" stroke="#000" stroke-width=".8" id="line2d_9"/><g transform="matrix(.1 0 0 -.1 766.467 392.598)" id="text_9"><use xlink:href="#DejaVuSans-32"/><use x="63.623" xlink:href="#DejaVuSans-2e"/><use x="95.41" xlink:href="#DejaVuSans-30"/><use x="159.033" xlink:href="#DejaVuSans-30"/></g></g><g id="text_10"><defs><path d="M54.89 54.688l-19.78-26.61L55.905 0H45.313L29.39 21.484 13.484 0H2.875l21.25 28.61L4.687 54.687h10.594l14.5-19.485 14.5 19.484z" id="DejaVuSans-78"/></defs><use xlink:href="#DejaVuSans-78" transform="matrix(.1 0 0 -.1 439.84 406.277)"/></g></g><g id="matplotlib.axis_2"><g id="ytick_1"><g id="line2d_10"><defs><path d="M0 0h-3.5" id="m96725f30b1" stroke="#000" stroke-width=".8"/></defs><use x="108" xlink:href="#m96725f30b1" y="360.528" stroke="#000" stroke-width=".8"/></g><g id="text_11"><defs><path d="M10.594 35.5h62.593v-8.297H10.594z" id="DejaVuSans-2212"/><path d="M37.797 64.313L12.89 25.39h24.906zm-2.594 8.593H47.61V25.391h10.407v-8.203H47.609V0h-9.812v17.188H4.89v9.515z" id="DejaVuSans-34"/></defs><g transform="matrix(.1 0 0 -.1 70.355 364.327)"><use xlink:href="#DejaVuSans-2212"/><use x="83.789" xlink:href="#DejaVuSans-30"/><use x="147.412" xlink:href="#DejaVuSans-2e"/><use x="179.199" xlink:href="#DejaVuSans-30"/><use x="242.822" xlink:href="#DejaVuSans-34"/></g></g></g><g id="ytick_2"><use x="108" xlink:href="#m96725f30b1" y="291.93" stroke="#000" stroke-width=".8" id="line2d_11"/><g transform="matrix(.1 0 0 -.1 70.355 295.73)" id="text_12"><use xlink:href="#DejaVuSans-2212"/><use x="83.789" xlink:href="#DejaVuSans-30"/><use x="147.412" xlink:href="#DejaVuSans-2e"/><use x="179.199" xlink:href="#DejaVuSans-30"/><use x="242.822" xlink:href="#DejaVuSans-32"/></g></g><g id="ytick_3"><use x="108" xlink:href="#m96725f30b1" y="223.333" stroke="#000" stroke-width=".8" id="line2d_12"/><g transform="matrix(.1 0 0 -.1 78.734 227.132)" id="text_13"><use xlink:href="#DejaVuSans-30"/><use x="63.623" xlink:href="#DejaVuSans-2e"/><use x="95.41" xlink:href="#DejaVuSans-30"/><use x="159.033" xlink:href="#DejaVuSans-30"/></g></g><g id="ytick_4"><use x="108" xlink:href="#m96725f30b1" y="154.736" stroke="#000" stroke-width=".8" id="line2d_13"/><g transform="matrix(.1 0 0 -.1 78.734 158.535)" id="text_14"><use xlink:href="#DejaVuSans-30"/><use x="63.623" xlink:href="#DejaVuSans-2e"/><use x="95.41" xlink:href="#DejaVuSans-30"/><use x="159.033" xlink:href="#DejaVuSans-32"/></g></g><g id="ytick_5"><use x="108" xlink:href="#m96725f30b1" y="86.139" stroke="#000" stroke-width=".8" id="line2d_14"/><g transform="matrix(.1 0 0 -.1 78.734 89.938)" id="text_15"><use xlink:href="#DejaVuSans-30"/><use x="63.623" xlink:href="#DejaVuSans-2e"/><use x="95.41" xlink:href="#DejaVuSans-30"/><use x="159.033" xlink:href="#DejaVuSans-34"/></g></g><g id="text_16"><defs><path d="M45.406 46.39v29.594h8.985V0h-8.985v8.203Q42.578 3.328 38.25.953q-4.313-2.375-10.375-2.375-9.906 0-16.14 7.906-6.22 7.922-6.22 20.813 0 12.89 6.22 20.797Q17.968 56 27.874 56q6.063 0 10.375-2.375 4.328-2.36 7.156-7.234m-30.61-19.094q0-9.906 4.079-15.547 4.078-5.64 11.203-5.64 7.125 0 11.219 5.64 4.11 5.64 4.11 15.547 0 9.906-4.11 15.547-4.094 5.64-11.219 5.64-7.125 0-11.203-5.64-4.078-5.64-4.078-15.547" id="DejaVuSans-64"/><path d="M56.203 29.594v-4.39H14.891q.593-9.282 5.593-14.142 5-4.859 13.938-4.859 5.172 0 10.031 1.266 4.86 1.265 9.656 3.812v-8.5Q49.266.734 44.187-.344 39.11-1.422 33.892-1.422q-13.094 0-20.735 7.61-7.64 7.625-7.64 20.625 0 13.421 7.25 21.296Q20.016 56 32.328 56q11.031 0 17.453-7.11 6.422-7.093 6.422-19.296m-8.984 2.64q-.094 7.36-4.125 11.75-4.032 4.407-10.672 4.407-7.516 0-12.031-4.25-4.516-4.25-5.203-11.97z" id="DejaVuSans-65"/><path d="M37.11 75.984V68.5h-8.594q-4.828 0-6.72-1.953-1.874-1.953-1.874-7.031v-4.828h14.797v-6.985H19.922V0H10.89v47.703H2.297v6.984h8.594V58.5q0 9.125 4.25 13.297 4.25 4.187 13.468 4.187z" id="DejaVuSans-66"/><path d="M9.422 75.984h8.984V0H9.422z" id="DejaVuSans-6c"/><path d="M48.781 52.594v-8.407q-3.812 2.11-7.64 3.157-3.828 1.047-7.735 1.047-8.75 0-13.593-5.547-4.829-5.532-4.829-15.547 0-10.016 4.829-15.563 4.843-5.53 13.593-5.53 3.907 0 7.735 1.046 3.828 1.047 7.64 3.156V2.094Q45.016.344 40.984-.531q-4.015-.89-8.562-.89-12.36 0-19.64 7.765-7.266 7.765-7.266 20.953 0 13.375 7.343 21.031Q20.22 56 33.016 56q4.14 0 8.093-.86 3.953-.843 7.672-2.546" id="DejaVuSans-63"/><path d="M18.313 70.219V54.688h18.5v-6.985h-18.5V18.016q0-6.688 1.828-8.594 1.828-1.906 7.453-1.906h9.218V0h-9.218q-10.407 0-14.36 3.875-3.953 3.89-3.953 14.14v29.688H2.687v6.984h6.594V70.22z" id="DejaVuSans-74"/><path d="M9.422 54.688h8.984V0H9.422zm0 21.296h8.984v-11.39H9.422z" id="DejaVuSans-69"/><path d="M30.61 48.39q-7.22 0-11.422-5.64-4.204-5.64-4.204-15.453 0-9.813 4.172-15.453 4.188-5.64 11.453-5.64 7.188 0 11.375 5.655 4.203 5.672 4.203 15.438 0 9.719-4.203 15.406-4.187 5.688-11.375 5.688m0 7.609q11.72 0 18.407-7.625 6.703-7.61 6.703-21.078 0-13.422-6.703-21.078-6.688-7.64-18.407-7.64-11.765 0-18.437 7.64-6.656 7.656-6.656 21.078 0 13.469 6.656 21.078Q18.844 56 30.609 56" id="DejaVuSans-6f"/><path d="M54.89 33.016V0h-8.984v32.719q0 7.765-3.031 11.61-3.031 3.858-9.078 3.858-7.281 0-11.484-4.64-4.204-4.625-4.204-12.64V0H9.08v54.688h9.03v-8.5q3.235 4.937 7.594 7.374Q30.078 56 35.797 56q9.422 0 14.25-5.828 4.844-5.828 4.844-17.156" id="DejaVuSans-6e"/></defs><g transform="matrix(0 -.1 -.1 0 64.275 241.312)"><use xlink:href="#DejaVuSans-20"/><use x="31.787" xlink:href="#DejaVuSans-64"/><use x="95.264" xlink:href="#DejaVuSans-65"/><use x="156.787" xlink:href="#DejaVuSans-66"/><use x="191.992" xlink:href="#DejaVuSans-6c"/><use x="219.775" xlink:href="#DejaVuSans-65"/><use x="281.299" xlink:href="#DejaVuSans-63"/><use x="336.279" xlink:href="#DejaVuSans-74"/><use x="375.488" xlink:href="#DejaVuSans-69"/><use x="403.271" xlink:href="#DejaVuSans-6f"/><use x="464.453" xlink:href="#DejaVuSans-6e"/></g></g></g><path clip-path="url(#p61548631ba)" d="M108 223.333l50.22 10.217 27.454 5.353 23.436 4.348 21.427 3.75 20.088 3.287 18.749 2.843 18.079 2.518 17.41 2.201 16.74 1.898 16.74 1.674 16.07 1.388 16.07 1.167 16.07.94 15.401.684 15.401.469 15.401.251 15.4.034 15.402-.185 15.4-.403 15.401-.619 16.07-.873 16.071-1.101 16.07-1.324 16.07-1.541 16.74-1.828 17.41-2.131 17.41-2.355 18.08-2.666 18.748-2.985 20.088-3.424 21.427-3.876 24.106-4.592 28.793-5.725 36.158-7.394" fill="none" stroke="brown" stroke-linecap="square" stroke-width="1.5" id="line2d_15"/><path clip-path="url(#p61548631ba)" d="M108 240.482l50.22 10.217 27.454 5.353 23.436 4.348 21.427 3.75 20.088 3.287 18.749 2.843 18.079 2.518 17.41 2.201 16.74 1.899 16.74 1.674 16.07 1.388 16.07 1.167 16.07.94 15.401.683 15.401.47 15.401.25 15.4.034 15.402-.185 15.4-.403 15.401-.619 16.07-.873 16.071-1.1 16.07-1.325 16.07-1.54 16.74-1.828 17.41-2.132 17.41-2.354 18.08-2.667 18.748-2.985 20.088-3.423 21.427-3.877 24.106-4.592 28.793-5.724 36.158-7.395" fill="none" stroke="brown" stroke-linecap="square" stroke-width=".5" id="line2d_16"/><path clip-path="url(#p61548631ba)" d="M108 206.184l50.22 10.216 27.454 5.353 23.436 4.349 21.427 3.75 20.088 3.286 18.749 2.844 18.079 2.517 17.41 2.202 16.74 1.898 16.74 1.674 16.07 1.388 16.07 1.167 16.07.94 15.401.684 15.401.469 15.401.251 15.4.033 15.402-.185 15.4-.403L494.36 248l16.07-.873 16.071-1.101 16.07-1.325 16.07-1.54 16.74-1.828 17.41-2.131 17.41-2.355 18.08-2.666 18.748-2.986 20.088-3.423 21.427-3.876 24.106-4.592 28.793-5.725 36.158-7.394" fill="none" stroke="brown" stroke-linecap="square" stroke-width=".5" id="line2d_17"/><path d="M108 378V51.84" fill="none" stroke="#000" stroke-linecap="square" stroke-width=".8" id="patch_3"/><path d="M777.6 378V51.84" fill="none" stroke="#000" stroke-linecap="square" stroke-width=".8" id="patch_4"/><path d="M108 378h669.6" fill="none" stroke="#000" stroke-linecap="square" stroke-width=".8" id="patch_5"/><path d="M108 51.84h669.6" fill="none" stroke="#000" stroke-linecap="square" stroke-width=".8" id="patch_6"/></g></g><defs><clipPath id="p61548631ba"><path d="M108 51.84h669.6V378H108z"/></clipPath></defs></svg>